<mxfile host="app.diagrams.net" modified="2024-07-28T06:55:20.710Z" agent="Mozilla/5.0 (Windows NT 10.0; Win64; x64) AppleWebKit/537.36 (KHTML, like Gecko) Chrome/127.0.0.0 Safari/537.36" etag="tKHIYapZ2PmIGXlQXwUt" version="24.7.1" type="github" pages="2">
  <diagram name="KLL-structure" id="RIdGHcOCZjLfOZpH6eP5">
    <mxGraphModel dx="1352" dy="1114" grid="1" gridSize="10" guides="1" tooltips="1" connect="1" arrows="1" fold="1" page="0" pageScale="1" pageWidth="827" pageHeight="1169" math="1" shadow="0">
      <root>
        <mxCell id="0" />
        <mxCell id="1" parent="0" />
        <mxCell id="oDtsW4RmFpOyFjkodEfx-1" value="&lt;font style=&quot;font-size: 20px;&quot;&gt;`k`&lt;/font&gt;" style="rounded=0;whiteSpace=wrap;html=1;fillColor=#dae8fc;strokeColor=#000000;shadow=0;strokeWidth=2;" vertex="1" parent="1">
          <mxGeometry x="-40" y="-40" width="240" height="30" as="geometry" />
        </mxCell>
        <mxCell id="oDtsW4RmFpOyFjkodEfx-8" value="&lt;font style=&quot;font-size: 20px;&quot;&gt;`k\cdot c`&lt;/font&gt;" style="rounded=0;whiteSpace=wrap;html=1;fillColor=#dae8fc;strokeColor=#000000;strokeWidth=2;" vertex="1" parent="1">
          <mxGeometry y="10" width="160" height="30" as="geometry" />
        </mxCell>
        <mxCell id="oDtsW4RmFpOyFjkodEfx-9" value="&lt;font style=&quot;font-size: 20px;&quot;&gt;`k\cdot c^{H}`&lt;/font&gt;" style="rounded=0;whiteSpace=wrap;html=1;fillColor=#dae8fc;strokeColor=#000000;strokeWidth=2;" vertex="1" parent="1">
          <mxGeometry x="40" y="90" width="80" height="30" as="geometry" />
        </mxCell>
        <mxCell id="oDtsW4RmFpOyFjkodEfx-10" value="&lt;font size=&quot;1&quot; face=&quot;Helvetica&quot;&gt;&lt;b style=&quot;font-size: 20px;&quot;&gt;Capacity&lt;/b&gt;&lt;/font&gt;" style="text;html=1;align=center;verticalAlign=middle;whiteSpace=wrap;rounded=0;fontSize=16;" vertex="1" parent="1">
          <mxGeometry x="50" y="-80" width="60" height="30" as="geometry" />
        </mxCell>
        <mxCell id="oDtsW4RmFpOyFjkodEfx-11" value="&lt;font style=&quot;font-size: 25px;&quot; face=&quot;Helvetica&quot;&gt;`\cdots`&lt;/font&gt;" style="text;html=1;align=center;verticalAlign=middle;whiteSpace=wrap;rounded=0;fontSize=16;rotation=0;" vertex="1" parent="1">
          <mxGeometry x="50" y="50" width="60" height="30" as="geometry" />
        </mxCell>
        <mxCell id="oDtsW4RmFpOyFjkodEfx-12" value="&lt;font size=&quot;1&quot; face=&quot;Helvetica&quot;&gt;&lt;b style=&quot;font-size: 20px;&quot;&gt;Level&lt;/b&gt;&lt;/font&gt;" style="text;html=1;align=center;verticalAlign=middle;whiteSpace=wrap;rounded=0;fontSize=16;" vertex="1" parent="1">
          <mxGeometry x="290" y="-80" width="60" height="30" as="geometry" />
        </mxCell>
        <mxCell id="oDtsW4RmFpOyFjkodEfx-13" value="&lt;font size=&quot;1&quot; face=&quot;Helvetica&quot;&gt;&lt;b style=&quot;font-size: 20px;&quot;&gt;`H`&lt;/b&gt;&lt;/font&gt;" style="text;html=1;align=center;verticalAlign=middle;whiteSpace=wrap;rounded=0;fontSize=16;" vertex="1" parent="1">
          <mxGeometry x="290" y="-40" width="60" height="30" as="geometry" />
        </mxCell>
        <mxCell id="oDtsW4RmFpOyFjkodEfx-14" value="&lt;font size=&quot;1&quot; face=&quot;Helvetica&quot;&gt;&lt;b style=&quot;font-size: 20px;&quot;&gt;`H-1`&lt;/b&gt;&lt;/font&gt;" style="text;html=1;align=center;verticalAlign=middle;whiteSpace=wrap;rounded=0;fontSize=16;" vertex="1" parent="1">
          <mxGeometry x="290" y="10" width="60" height="30" as="geometry" />
        </mxCell>
        <mxCell id="oDtsW4RmFpOyFjkodEfx-15" value="&lt;font size=&quot;1&quot; face=&quot;Helvetica&quot;&gt;&lt;b style=&quot;font-size: 20px;&quot;&gt;`0`&lt;/b&gt;&lt;/font&gt;" style="text;html=1;align=center;verticalAlign=middle;whiteSpace=wrap;rounded=0;fontSize=16;" vertex="1" parent="1">
          <mxGeometry x="290" y="90" width="60" height="30" as="geometry" />
        </mxCell>
        <mxCell id="oDtsW4RmFpOyFjkodEfx-16" value="&lt;font style=&quot;font-size: 25px;&quot; face=&quot;Helvetica&quot;&gt;`\cdots`&lt;/font&gt;" style="text;html=1;align=center;verticalAlign=middle;whiteSpace=wrap;rounded=0;fontSize=16;rotation=0;" vertex="1" parent="1">
          <mxGeometry x="290" y="50" width="60" height="30" as="geometry" />
        </mxCell>
        <mxCell id="oDtsW4RmFpOyFjkodEfx-17" value="&lt;span style=&quot;font-size: 20px;&quot;&gt;&lt;b&gt;Weight&lt;/b&gt;&lt;/span&gt;" style="text;html=1;align=center;verticalAlign=middle;whiteSpace=wrap;rounded=0;fontSize=16;" vertex="1" parent="1">
          <mxGeometry x="420" y="-80" width="60" height="30" as="geometry" />
        </mxCell>
        <mxCell id="oDtsW4RmFpOyFjkodEfx-18" value="&lt;font size=&quot;1&quot; face=&quot;Helvetica&quot;&gt;&lt;b style=&quot;font-size: 20px;&quot;&gt;`2^H`&lt;/b&gt;&lt;/font&gt;" style="text;html=1;align=center;verticalAlign=middle;whiteSpace=wrap;rounded=0;fontSize=16;" vertex="1" parent="1">
          <mxGeometry x="420" y="-40" width="60" height="30" as="geometry" />
        </mxCell>
        <mxCell id="oDtsW4RmFpOyFjkodEfx-19" value="&lt;font size=&quot;1&quot; face=&quot;Helvetica&quot;&gt;&lt;b style=&quot;font-size: 20px;&quot;&gt;`2^{H-1}`&lt;/b&gt;&lt;/font&gt;" style="text;html=1;align=center;verticalAlign=middle;whiteSpace=wrap;rounded=0;fontSize=16;" vertex="1" parent="1">
          <mxGeometry x="420" y="10" width="60" height="30" as="geometry" />
        </mxCell>
        <mxCell id="oDtsW4RmFpOyFjkodEfx-20" value="&lt;font size=&quot;1&quot; face=&quot;Helvetica&quot;&gt;&lt;b style=&quot;font-size: 20px;&quot;&gt;`2^0`&lt;/b&gt;&lt;/font&gt;" style="text;html=1;align=center;verticalAlign=middle;whiteSpace=wrap;rounded=0;fontSize=16;" vertex="1" parent="1">
          <mxGeometry x="420" y="90" width="60" height="30" as="geometry" />
        </mxCell>
        <mxCell id="oDtsW4RmFpOyFjkodEfx-21" value="&lt;font style=&quot;font-size: 25px;&quot; face=&quot;Helvetica&quot;&gt;`\cdots`&lt;/font&gt;" style="text;html=1;align=center;verticalAlign=middle;whiteSpace=wrap;rounded=0;fontSize=16;rotation=0;" vertex="1" parent="1">
          <mxGeometry x="420" y="50" width="60" height="30" as="geometry" />
        </mxCell>
        <mxCell id="oDtsW4RmFpOyFjkodEfx-22" value="" style="shape=flexArrow;endArrow=classic;html=1;rounded=0;fontSize=12;startSize=8;endSize=8;curved=1;fillColor=#FFFFFF;strokeColor=#6c8ebf;gradientColor=#A9C4EB;gradientDirection=north;strokeWidth=2;" edge="1" parent="1">
          <mxGeometry width="50" height="50" relative="1" as="geometry">
            <mxPoint x="240" y="120" as="sourcePoint" />
            <mxPoint x="240" y="-40" as="targetPoint" />
          </mxGeometry>
        </mxCell>
        <mxCell id="oDtsW4RmFpOyFjkodEfx-23" value="" style="shape=curlyBracket;whiteSpace=wrap;html=1;rounded=1;labelPosition=left;verticalLabelPosition=middle;align=right;verticalAlign=middle;strokeWidth=2;size=0;" vertex="1" parent="1">
          <mxGeometry x="-90" y="-30" width="20" height="140" as="geometry" />
        </mxCell>
        <mxCell id="oDtsW4RmFpOyFjkodEfx-24" value="&lt;font size=&quot;1&quot; face=&quot;Helvetica&quot;&gt;&lt;span style=&quot;font-size: 20px;&quot;&gt;Compactors&lt;/span&gt;&lt;/font&gt;" style="text;html=1;align=center;verticalAlign=middle;whiteSpace=wrap;rounded=0;fontSize=16;fillColor=default;" vertex="1" parent="1">
          <mxGeometry x="-120" y="25" width="60" height="30" as="geometry" />
        </mxCell>
      </root>
    </mxGraphModel>
  </diagram>
  <diagram id="RUEiOXi2WiEYHmCdhpVl" name="KLL-running">
    <mxGraphModel dx="809" dy="607" grid="1" gridSize="10" guides="1" tooltips="1" connect="1" arrows="1" fold="1" page="0" pageScale="1" pageWidth="827" pageHeight="1169" math="1" shadow="0">
      <root>
        <mxCell id="0" />
        <mxCell id="1" parent="0" />
      </root>
    </mxGraphModel>
  </diagram>
</mxfile>
